<svg id="foundya-logo" xmlns="http://www.w3.org/2000/svg" xmlns:xlink="http://www.w3.org/1999/xlink" width="44.576" height="55.493" viewBox="0 0 44.576 55.493">
  <defs>
    <linearGradient id="linear-gradient" x1="0.5" x2="0.5" y2="1" gradientUnits="objectBoundingBox">
      <stop offset="0" stop-color="#ccecfd"/>
      <stop offset="1" stop-color="#e73151"/>
    </linearGradient>
  </defs>
  <path id="Path_2" data-name="Path 2" d="M323.813-467.535a6.726,6.726,0,0,0-3.764,3.471c-.641,1.335-.694,1.655-.587,3.658l.16,2.216-1.922.988a18.766,18.766,0,0,0-9.264,11.053,1.892,1.892,0,0,1-.854,1.308,8.279,8.279,0,0,0-3.15,3.1,7.285,7.285,0,0,0-.16,5.046,6.046,6.046,0,0,0,3.017,3.177c1.468.721,3.177.667,9.051-.294a71.943,71.943,0,0,1,19.89.027,50.788,50.788,0,0,0,6.3.667c1.9,0,2.269-.08,3.257-.747a5.576,5.576,0,0,0,2.67-4.592,9.031,9.031,0,0,0-.214-2.7,7.85,7.85,0,0,0-3.177-3.578c-.561-.214-.854-.614-1.095-1.415a18.786,18.786,0,0,0-9.371-11.133c-2-1.041-2.082-1.121-1.842-1.762a7.531,7.531,0,0,0,.267-2.216A6.845,6.845,0,0,0,323.813-467.535Zm-1.335,12.228a6.917,6.917,0,0,0,7.4.027,4.426,4.426,0,0,1,1.282-.667,19.141,19.141,0,0,1,5.019,2.723,17.138,17.138,0,0,1,2.643,2.723c1.228,1.629,2.616,4.378,2.376,4.645a13.793,13.793,0,0,1-2.883-.294,68.8,68.8,0,0,0-24.188-.027,13.8,13.8,0,0,1-2.883.294c-.267-.267,1.095-2.91,2.349-4.592a16.006,16.006,0,0,1,2.643-2.723c1.5-1.148,4.378-2.75,4.966-2.75A4.18,4.18,0,0,1,322.479-455.307Z" transform="translate(-303.896 467.948)" fill="url(#linear-gradient)"/>
  <path id="Path_3" data-name="Path 3" d="M320.066-328.384a9.294,9.294,0,0,0-5.9,5.233,9.267,9.267,0,0,0,0,7.262,9.127,9.127,0,0,0,7.716,5.5,9.037,9.037,0,0,0,9.478-6.434l.481-1.522h2.7l.454,1.548a9.561,9.561,0,0,0,3.951,5.073,8.294,8.294,0,0,0,5.473,1.335,9.117,9.117,0,0,0,7.823-5.5,6.95,6.95,0,0,0,.667-3.524,8.743,8.743,0,0,0-5.1-8.33,6.689,6.689,0,0,0-4.058-.881,7.348,7.348,0,0,0-3.764.721,9.809,9.809,0,0,0-5.153,6.141c-.16.694-.267.748-1.629.748s-1.468-.053-1.629-.748a9.884,9.884,0,0,0-5.073-6.114A10.756,10.756,0,0,0,320.066-328.384Zm6.007,3.284a7.533,7.533,0,0,1,3.1,4.592c.934,5.82-6.274,9.852-10.733,6.007a5.849,5.849,0,0,1-2.3-5.046,6.08,6.08,0,0,1,3.845-6.007A7.006,7.006,0,0,1,326.073-325.1Zm20.638-.267a6.5,6.5,0,0,1,1.415,10.759,5.828,5.828,0,0,1-4.325,1.6,6.587,6.587,0,0,1-6.461-5.153A6.556,6.556,0,0,1,346.711-325.367Z" transform="translate(-310.881 365.854)" fill="url(#linear-gradient)"/>
</svg>
